<svg width="16" height="16" viewBox="0 0 16 16" fill="none" xmlns="http://www.w3.org/2000/svg">
<g clip-path="url(#clip0_75_3880)">
<path d="M8 16C12.4183 16 16 12.4183 16 8C16 3.58172 12.4183 0 8 0C3.58172 0 0 3.58172 0 8C0 12.4183 3.58172 16 8 16Z" fill="#0D1E30"/>
<g filter="url(#filter0_d_75_3880)">
<path d="M7.86252 3.02997C8.10202 2.90647 8.39452 3.19197 8.26752 3.42747C8.19302 3.61947 7.91252 3.67047 7.76952 3.52397C7.61802 3.38397 7.66752 3.10597 7.86252 3.02947V3.02997ZM5.28502 3.30297C5.43052 3.24397 5.61502 3.37497 5.60002 3.53147C5.61502 3.70047 5.40502 3.82547 5.25652 3.74497C5.06002 3.66997 5.08252 3.35597 5.28502 3.30297ZM10.564 3.74947C10.3365 3.72247 10.3005 3.37047 10.519 3.29947C10.689 3.21847 10.845 3.37097 10.87 3.52947C10.834 3.66447 10.719 3.78847 10.564 3.74947ZM5.87152 4.38197C6.11502 4.23047 6.46202 4.45597 6.42452 4.73447C6.41202 5.01497 6.03302 5.17797 5.81902 4.98797C5.61202 4.83897 5.64352 4.49697 5.87152 4.38197ZM9.58652 4.54298C9.69502 4.26798 10.135 4.25897 10.2585 4.52697C10.381 4.73547 10.2305 4.99397 10.013 5.06497C9.72452 5.11797 9.45102 4.81098 9.58652 4.54298ZM7.55202 5.04947C7.54952 4.81247 7.76852 4.63647 7.99702 4.61997C8.14902 4.64997 8.31402 4.71347 8.37902 4.86397C8.50052 5.07197 8.39252 5.35747 8.17402 5.45297C8.07402 5.50797 7.95502 5.48747 7.84602 5.48097C7.67952 5.40097 7.53902 5.24247 7.55202 5.04947ZM3.71902 5.39447C3.94152 5.25947 4.24152 5.50447 4.15702 5.74247C4.11102 5.94797 3.83002 6.03147 3.66952 5.90047C3.49802 5.77747 3.52502 5.48197 3.71952 5.39397L3.71902 5.39447ZM11.95 5.39347C12.1385 5.24947 12.45 5.41497 12.427 5.64897C12.44 5.86247 12.1705 6.02397 11.9835 5.91397C11.7775 5.82247 11.756 5.51047 11.95 5.39397V5.39347ZM8.63002 5.81897C8.94102 5.70897 9.31102 5.84047 9.48802 6.11397C9.72202 6.44747 9.59802 6.95547 9.23452 7.14697C8.85852 7.37347 8.30902 7.18197 8.16952 6.76797C8.01202 6.39797 8.24202 5.93497 8.62952 5.81897H8.63002ZM6.80352 5.85547C7.14852 5.69547 7.61302 5.82947 7.77952 6.17647C7.97552 6.51447 7.82402 6.98497 7.47352 7.15947C7.12252 7.35597 6.62702 7.20697 6.45752 6.84447C6.26702 6.49347 6.43602 6.01697 6.80352 5.85547ZM4.97502 6.46997C5.00152 6.25147 5.21102 6.10897 5.42252 6.09397C5.53282 6.10562 5.63591 6.15435 5.71493 6.23218C5.79394 6.31002 5.84421 6.41236 5.85752 6.52247C5.84252 6.74747 5.66602 6.96647 5.42402 6.96547C5.15752 6.98797 4.92402 6.72697 4.97502 6.46997ZM10.376 6.14197C10.6495 5.98547 11.029 6.21297 11.017 6.52197C11.0355 6.84947 10.6155 7.07997 10.3435 6.88797C10.0605 6.72797 10.0825 6.27797 10.376 6.14197ZM6.06102 7.29547C6.38002 7.20897 6.74602 7.35697 6.90252 7.64597C7.07402 7.93697 7.00402 8.34097 6.73752 8.55498C6.39502 8.86798 5.76452 8.74197 5.58252 8.31497C5.37302 7.92347 5.62752 7.39847 6.06052 7.29497L6.06102 7.29547ZM9.52452 7.29397C9.83502 7.20647 10.2 7.32397 10.367 7.60247C10.588 7.92097 10.4825 8.39647 10.154 8.60147C9.80902 8.83997 9.27602 8.71497 9.08602 8.34197C8.85602 7.95647 9.08752 7.41147 9.52452 7.29397ZM4.00452 7.65697C4.28052 7.55447 4.58652 7.85397 4.47452 8.12347C4.40652 8.36847 4.05502 8.45947 3.87352 8.27847C3.66102 8.10847 3.73952 7.73097 4.00452 7.65697ZM11.489 8.04798C11.4838 7.93791 11.5223 7.83025 11.5961 7.74841C11.6699 7.66657 11.773 7.61718 11.883 7.61097C12.072 7.64097 12.256 7.79098 12.241 7.99347C12.2585 8.26097 11.931 8.44248 11.699 8.31698C11.5905 8.26248 11.535 8.15298 11.489 8.04798ZM2.64702 7.78997C2.81302 7.71847 3.01852 7.85997 2.98052 8.04147C2.97152 8.24697 2.66302 8.32647 2.55002 8.15447C2.45002 8.03497 2.51002 7.85147 2.64702 7.78947V7.78997ZM13.1215 7.78547C13.2385 7.70397 13.4265 7.76247 13.4725 7.89697C13.551 8.04397 13.407 8.24497 13.239 8.22047C13.003 8.24147 12.927 7.88797 13.1215 7.78547ZM6.96302 8.77198C7.40002 8.66048 7.87002 9.01897 7.87302 9.46197C7.90102 9.90947 7.43802 10.306 6.99102 10.203C6.64502 10.148 6.37352 9.81997 6.38502 9.47647C6.38402 9.14747 6.63602 8.84148 6.96302 8.77198ZM8.69402 8.77147C9.13752 8.64947 9.62152 9.01447 9.61452 9.46747C9.63802 9.90647 9.18952 10.29 8.75152 10.2025C8.33902 10.1505 8.03502 9.70497 8.15002 9.31097C8.20802 9.04897 8.43102 8.83597 8.69402 8.77097V8.77147ZM5.35602 9.04397C5.66302 8.99247 5.95102 9.32897 5.82652 9.61597C5.73552 9.92198 5.28352 10.0045 5.08352 9.75497C4.84952 9.51498 5.02452 9.07697 5.35602 9.04397ZM10.433 9.05747C10.707 8.94447 11.043 9.17747 11.022 9.46997C11.033 9.79147 10.618 10.0135 10.3505 9.82547C10.047 9.65697 10.1025 9.16047 10.433 9.05747ZM11.852 10.4575C11.745 10.261 11.9395 10.0005 12.162 10.037C12.272 10.035 12.3495 10.1205 12.42 10.1925C12.4345 10.309 12.459 10.448 12.3605 10.5375C12.227 10.704 11.9245 10.6565 11.852 10.4575ZM3.71802 10.0915C3.92552 9.95598 4.22402 10.1585 4.17702 10.3965C4.15202 10.608 3.88202 10.7285 3.70452 10.6085C3.51352 10.5 3.52052 10.1905 3.71802 10.0915ZM7.81452 10.533C8.08602 10.4155 8.43202 10.648 8.40602 10.942C8.42602 11.267 7.99852 11.492 7.73302 11.297C7.43802 11.1295 7.48752 10.6365 7.81452 10.533ZM5.91752 10.9685C6.14852 10.849 6.45852 11.0555 6.43752 11.3105C6.44452 11.5195 6.23752 11.6975 6.02752 11.6665C5.85402 11.663 5.74102 11.5095 5.68502 11.364C5.68802 11.2055 5.75452 11.029 5.91752 10.969V10.9685ZM9.76052 10.9725C9.99852 10.8275 10.3365 11.0355 10.314 11.3075C10.32 11.5925 9.93802 11.7745 9.71652 11.5875C9.50252 11.441 9.52852 11.089 9.76052 10.9725ZM10.429 12.5975C10.323 12.4405 10.4475 12.251 10.619 12.215C10.7575 12.2425 10.904 12.345 10.8745 12.502C10.8545 12.7155 10.5375 12.7805 10.429 12.598V12.5975ZM5.12352 12.461C5.16552 12.336 5.26752 12.2125 5.41702 12.245C5.63452 12.26 5.69902 12.583 5.50852 12.6825C5.33752 12.796 5.13852 12.6405 5.12352 12.461ZM7.68352 12.6045C7.72502 12.4195 7.96752 12.33 8.12752 12.428C8.23352 12.473 8.26452 12.589 8.29152 12.688C8.27725 12.7394 8.26392 12.7911 8.25152 12.843C8.18602 12.919 8.10152 12.9955 7.99252 12.993C7.79002 13.0165 7.60702 12.791 7.68302 12.6045H7.68352Z" fill="white"/>
</g>
<path d="M7.86252 3.02997C8.10202 2.90647 8.39452 3.19197 8.26752 3.42747C8.19302 3.61947 7.91252 3.67047 7.76952 3.52397C7.61802 3.38397 7.66752 3.10597 7.86252 3.02947V3.02997ZM5.28502 3.30297C5.43052 3.24397 5.61502 3.37497 5.60002 3.53147C5.61502 3.70047 5.40502 3.82547 5.25652 3.74497C5.06002 3.66997 5.08252 3.35597 5.28502 3.30297ZM10.564 3.74947C10.3365 3.72247 10.3005 3.37047 10.519 3.29947C10.689 3.21847 10.845 3.37097 10.87 3.52947C10.834 3.66447 10.719 3.78847 10.564 3.74947ZM5.87152 4.38197C6.11502 4.23047 6.46202 4.45597 6.42452 4.73447C6.41202 5.01497 6.03302 5.17797 5.81902 4.98797C5.61202 4.83897 5.64352 4.49697 5.87152 4.38197ZM9.58652 4.54298C9.69502 4.26798 10.135 4.25897 10.2585 4.52697C10.381 4.73547 10.2305 4.99397 10.013 5.06497C9.72452 5.11797 9.45102 4.81098 9.58652 4.54298ZM7.55202 5.04947C7.54952 4.81247 7.76852 4.63647 7.99702 4.61997C8.14902 4.64997 8.31402 4.71347 8.37902 4.86397C8.50052 5.07197 8.39252 5.35747 8.17402 5.45297C8.07402 5.50797 7.95502 5.48747 7.84602 5.48097C7.67952 5.40097 7.53902 5.24247 7.55202 5.04947ZM3.71902 5.39447C3.94152 5.25947 4.24152 5.50447 4.15702 5.74247C4.11102 5.94797 3.83002 6.03147 3.66952 5.90047C3.49802 5.77747 3.52502 5.48197 3.71952 5.39397L3.71902 5.39447ZM11.95 5.39347C12.1385 5.24947 12.45 5.41497 12.427 5.64897C12.44 5.86247 12.1705 6.02397 11.9835 5.91397C11.7775 5.82247 11.756 5.51047 11.95 5.39397V5.39347ZM8.63002 5.81897C8.94102 5.70897 9.31102 5.84047 9.48802 6.11397C9.72202 6.44747 9.59802 6.95547 9.23452 7.14697C8.85852 7.37347 8.30902 7.18197 8.16952 6.76797C8.01202 6.39797 8.24202 5.93497 8.62952 5.81897H8.63002ZM6.80352 5.85547C7.14852 5.69547 7.61302 5.82947 7.77952 6.17647C7.97552 6.51447 7.82402 6.98497 7.47352 7.15947C7.12252 7.35597 6.62702 7.20697 6.45752 6.84447C6.26702 6.49347 6.43602 6.01697 6.80352 5.85547ZM4.97502 6.46997C5.00152 6.25147 5.21102 6.10897 5.42252 6.09397C5.53282 6.10562 5.63591 6.15435 5.71493 6.23218C5.79394 6.31002 5.84421 6.41236 5.85752 6.52247C5.84252 6.74747 5.66602 6.96647 5.42402 6.96547C5.15752 6.98797 4.92402 6.72697 4.97502 6.46997ZM10.376 6.14197C10.6495 5.98547 11.029 6.21297 11.017 6.52197C11.0355 6.84947 10.6155 7.07997 10.3435 6.88797C10.0605 6.72797 10.0825 6.27797 10.376 6.14197ZM6.06102 7.29547C6.38002 7.20897 6.74602 7.35697 6.90252 7.64597C7.07402 7.93697 7.00402 8.34097 6.73752 8.55498C6.39502 8.86798 5.76452 8.74197 5.58252 8.31497C5.37302 7.92347 5.62752 7.39847 6.06052 7.29497L6.06102 7.29547ZM9.52452 7.29397C9.83502 7.20647 10.2 7.32397 10.367 7.60247C10.588 7.92097 10.4825 8.39647 10.154 8.60147C9.80902 8.83997 9.27602 8.71497 9.08602 8.34197C8.85602 7.95647 9.08752 7.41147 9.52452 7.29397ZM4.00452 7.65697C4.28052 7.55447 4.58652 7.85397 4.47452 8.12347C4.40652 8.36847 4.05502 8.45947 3.87352 8.27847C3.66102 8.10847 3.73952 7.73097 4.00452 7.65697ZM11.489 8.04798C11.4838 7.93791 11.5223 7.83025 11.5961 7.74841C11.6699 7.66657 11.773 7.61718 11.883 7.61097C12.072 7.64097 12.256 7.79098 12.241 7.99347C12.2585 8.26097 11.931 8.44248 11.699 8.31698C11.5905 8.26248 11.535 8.15298 11.489 8.04798ZM2.64702 7.78997C2.81302 7.71847 3.01852 7.85997 2.98052 8.04147C2.97152 8.24697 2.66302 8.32647 2.55002 8.15447C2.45002 8.03497 2.51002 7.85147 2.64702 7.78947V7.78997ZM13.1215 7.78547C13.2385 7.70397 13.4265 7.76247 13.4725 7.89697C13.551 8.04397 13.407 8.24497 13.239 8.22047C13.003 8.24147 12.927 7.88797 13.1215 7.78547ZM6.96302 8.77198C7.40002 8.66048 7.87002 9.01897 7.87302 9.46197C7.90102 9.90947 7.43802 10.306 6.99102 10.203C6.64502 10.148 6.37352 9.81997 6.38502 9.47647C6.38402 9.14747 6.63602 8.84148 6.96302 8.77198ZM8.69402 8.77147C9.13752 8.64947 9.62152 9.01447 9.61452 9.46747C9.63802 9.90647 9.18952 10.29 8.75152 10.2025C8.33902 10.1505 8.03502 9.70497 8.15002 9.31097C8.20802 9.04897 8.43102 8.83597 8.69402 8.77097V8.77147ZM5.35602 9.04397C5.66302 8.99247 5.95102 9.32897 5.82652 9.61597C5.73552 9.92198 5.28352 10.0045 5.08352 9.75497C4.84952 9.51498 5.02452 9.07697 5.35602 9.04397ZM10.433 9.05747C10.707 8.94447 11.043 9.17747 11.022 9.46997C11.033 9.79147 10.618 10.0135 10.3505 9.82547C10.047 9.65697 10.1025 9.16047 10.433 9.05747ZM11.852 10.4575C11.745 10.261 11.9395 10.0005 12.162 10.037C12.272 10.035 12.3495 10.1205 12.42 10.1925C12.4345 10.309 12.459 10.448 12.3605 10.5375C12.227 10.704 11.9245 10.6565 11.852 10.4575ZM3.71802 10.0915C3.92552 9.95598 4.22402 10.1585 4.17702 10.3965C4.15202 10.608 3.88202 10.7285 3.70452 10.6085C3.51352 10.5 3.52052 10.1905 3.71802 10.0915ZM7.81452 10.533C8.08602 10.4155 8.43202 10.648 8.40602 10.942C8.42602 11.267 7.99852 11.492 7.73302 11.297C7.43802 11.1295 7.48752 10.6365 7.81452 10.533ZM5.91752 10.9685C6.14852 10.849 6.45852 11.0555 6.43752 11.3105C6.44452 11.5195 6.23752 11.6975 6.02752 11.6665C5.85402 11.663 5.74102 11.5095 5.68502 11.364C5.68802 11.2055 5.75452 11.029 5.91752 10.969V10.9685ZM9.76052 10.9725C9.99852 10.8275 10.3365 11.0355 10.314 11.3075C10.32 11.5925 9.93802 11.7745 9.71652 11.5875C9.50252 11.441 9.52852 11.089 9.76052 10.9725ZM10.429 12.5975C10.323 12.4405 10.4475 12.251 10.619 12.215C10.7575 12.2425 10.904 12.345 10.8745 12.502C10.8545 12.7155 10.5375 12.7805 10.429 12.598V12.5975ZM5.12352 12.461C5.16552 12.336 5.26752 12.2125 5.41702 12.245C5.63452 12.26 5.69902 12.583 5.50852 12.6825C5.33752 12.796 5.13852 12.6405 5.12352 12.461ZM7.68352 12.6045C7.72502 12.4195 7.96752 12.33 8.12752 12.428C8.23352 12.473 8.26452 12.589 8.29152 12.688C8.27725 12.7394 8.26392 12.7911 8.25152 12.843C8.18602 12.919 8.10152 12.9955 7.99252 12.993C7.79002 13.0165 7.60702 12.791 7.68302 12.6045H7.68352Z" fill="white"/>
</g>
<defs>
<filter id="filter0_d_75_3880" x="1.50024" y="2.50018" width="12.9943" height="11.9945" filterUnits="userSpaceOnUse" color-interpolation-filters="sRGB">
<feFlood flood-opacity="0" result="BackgroundImageFix"/>
<feColorMatrix in="SourceAlpha" type="matrix" values="0 0 0 0 0 0 0 0 0 0 0 0 0 0 0 0 0 0 127 0" result="hardAlpha"/>
<feOffset dy="0.5"/>
<feGaussianBlur stdDeviation="0.5"/>
<feColorMatrix type="matrix" values="0 0 0 0 0 0 0 0 0 0 0 0 0 0 0 0 0 0 0.204257 0"/>
<feBlend mode="normal" in2="BackgroundImageFix" result="effect1_dropShadow_75_3880"/>
<feBlend mode="normal" in="SourceGraphic" in2="effect1_dropShadow_75_3880" result="shape"/>
</filter>
<clipPath id="clip0_75_3880">
<rect width="16" height="16" fill="white"/>
</clipPath>
</defs>
</svg>
